<svg xmlns="http://www.w3.org/2000/svg" version="1.1" xmlns:xlink="http://www.w3.org/1999/xlink" xmlns:svgjs="http://svgjs.dev/svgjs" width="100%" height="100%" viewBox="0 0 1000 600"><rect width="1000" height="600" x="0" y="0" fill="#e34c26"/><g><rect width="333.3333333333333" height="333.3333333333333" rx="13.333333333333334" ry="13.333333333333334" y="323.96382913792627" fill="#000000" transform="matrix(0.41426177320366864,0,0,0.41426177320366864,0,96.75054935845822)" x="301.74163818359375"/><path d="M323.006536243228 565.630486095383L323.006536243228 415.63049063668916L348.3041545249522 415.63049063668916L348.3041545249522 481.404298169172L427.7981997372878 481.404298169172L427.7981997372878 415.63049063668916L453.095818019012 415.63049063668916L453.095818019012 565.630486095383L427.7981997372878 565.630486095383L427.7981997372878 502.83286894898544L348.3041545249522 502.83286894898544L348.3041545249522 565.630486095383L323.006536243228 565.630486095383ZM492.53034063464077 415.63049063668916L557.6493862821849 415.63049063668916Q573.304147712993 415.63049063668916 584.554147372395 420.1245381196778Q595.8041470317971 424.6185856026665 601.9053373232717 432.98168058756585Q608.0065276147465 441.34477557246527 608.0065276147465 453.13048950136266L608.0065276147465 453.13048950136266Q608.0065276147465 465.7792986422247 600.9529563997245 474.76739360820204Q593.8696232808417 483.78525047804015 581.6672426978924 486.5531075370994L581.6672426978924 486.5531075370994Q596.6672422437618 489.14239317299354 605.2386705556872 499.2019166779615Q613.8100988676125 509.26144018292945 613.8100988676125 524.4995349596857L613.8100988676125 524.4995349596857Q613.8100988676125 537.3566774275737 607.1731943066426 546.5531057205769Q600.5065278418117 555.779295917441 588.3041472588625 560.6900100544816Q576.101766675913 565.630486095383 559.1672433790883 565.630486095383L559.1672433790883 565.630486095383L492.53034063464077 565.630486095383L492.53034063464077 415.63049063668916ZM517.7981970125041 477.98167922517405L556.3696244161682 477.98167922517405Q568.3636716720916 477.98167922517405 575.2386714639484 472.53525081863813Q582.0839093519444 467.0590605082414 582.0839093519444 457.2078703302994L582.0839093519444 457.2078703302994Q582.0839093519444 447.5650134793833 575.2386714639484 442.2971564960126Q568.3636716720916 437.0590614165026 556.3696244161682 437.26739474352854L556.3696244161682 437.26739474352854L517.7981970125041 437.26739474352854L517.7981970125041 477.98167922517405ZM517.7981970125041 543.9935819885437L556.3696244161682 543.9935819885437Q571.1612906350117 544.2019153155696 579.5243856199111 538.3090583511209Q587.8874806048105 532.4162013866724 587.8874806048105 521.4935826697396L587.8874806048105 521.4935826697396Q587.8874806048105 511.1959639338848 579.5243856199111 505.30310696943616Q571.1612906350117 499.41025000498746 556.3696244161682 499.6185833320134L556.3696244161682 499.6185833320134L517.7981970125041 499.6185833320134L517.7981970125041 543.9935819885437Z " fill="#e34c26" transform="matrix(0.41426177320366864,0,0,0.41426177320366864,0,96.75054935845822)"/><path d="M718.4083154099185 563.9454216182824L718.4083154099185 417.51892842440986L743.1032596985676 417.51892842440986L743.1032596985676 481.7257835748976L820.7034905161933 481.7257835748976L820.7034905161933 417.51892842440986L845.3984348048424 417.51892842440986L845.3984348048424 563.9454216182824L820.7034905161933 563.9454216182824L820.7034905161933 502.64385403116506L743.1032596985676 502.64385403116506L743.1032596985676 563.9454216182824L718.4083154099185 563.9454216182824ZM866.5198753905457 438.6403690101133L866.5198753905457 417.51892842440986L983.8644400750796 417.51892842440986L983.8644400750796 438.6403690101133L937.4379448124192 438.6403690101133L937.4379448124192 563.9454216182824L912.7430005237701 563.9454216182824L912.7430005237701 438.6403690101133L866.5198753905457 438.6403690101133ZM1004.9858806607832 563.9454216182824L1004.9858806607832 417.51892842440986L1033.66106891125 417.51892842440986L1084.2711782651636 516.8797630916804L1134.4745473602056 417.51892842440986L1163.149735610672 417.51892842440986L1163.149735610672 563.9454216182824L1140.3432282382141 563.9454216182824L1140.1398581087778 452.0337446772512L1092.0282960593627 548.6636090349535L1076.3397432171623 548.6636090349535L1027.7923880332414 452.0337446772512L1027.7923880332414 563.9454216182824L1004.9858806607832 563.9454216182824ZM1201.6157429496975 563.9454216182824L1201.6157429496975 417.51892842440986L1226.3106872383464 417.51892842440986L1226.3106872383464 542.8239810325789L1289.7040618710903 542.8239810325789L1289.7040618710903 563.9454216182824L1201.6157429496975 563.9454216182824ZM1369.8028399932145 417.51892842440986L1433.3995847553947 417.51892842440986Q1448.6813973387234 417.51892842440986 1459.6633843282639 421.9059126450993Q1470.6453713178043 426.29289686578875 1476.6012108227137 434.4567549188598Q1482.557050327623 442.6206129719309 1482.557050327623 454.125551722878L1482.557050327623 454.125551722878Q1482.557050327623 466.4730238672025 1475.6424659268014 475.2469923085814Q1468.7569344016133 484.050013625594 1456.8162025161605 486.75193105952854L1456.8162025161605 486.75193105952854Q1471.458851835548 489.27953123966086 1479.826080018055 499.09940320385306Q1488.1933082005621 508.9192751680453 1488.1933082005621 523.7943474925022L1488.1933082005621 523.7943474925022Q1488.1933082005621 536.3451897662627 1481.7145169342457 545.3225283370775Q1475.2357256679297 554.328919783526 1463.3240466581105 559.1226442630873Q1451.3833147726582 563.9454216182824 1434.85222853708 563.9454216182824L1434.85222853708 563.9454216182824L1369.8028399932145 563.9454216182824L1369.8028399932145 417.51892842440986ZM1394.497784281864 478.38470287702154L1432.1503111031452 478.38470287702154Q1443.8586199835286 478.38470287702154 1450.5407813792804 473.06802663605356Q1457.2519956506662 467.72229751945184 1457.2519956506662 458.1057956846955L1457.2519956506662 458.1057956846955Q1457.2519956506662 448.6926639793752 1450.5407813792804 443.5503049922095Q1443.8586199835286 438.4369988806774 1432.1503111031452 438.6403690101133L1432.1503111031452 438.6403690101133L1394.497784281864 438.6403690101133L1394.497784281864 478.38470287702154ZM1394.497784281864 542.8239810325789L1432.1503111031452 542.8239810325789Q1446.5895902930965 543.0273511620148 1454.724395470534 537.2748817865413Q1462.8882535236048 531.5224124110678 1462.8882535236048 520.8600070534981L1462.8882535236048 520.8600070534981Q1462.8882535236048 510.80771208423613 1454.724395470534 505.0552427087626Q1446.5895902930965 499.302773333289 1432.1503111031452 499.50614346272494L1432.1503111031452 499.50614346272494L1394.497784281864 499.50614346272494L1394.497784281864 542.8239810325789ZM1498.4489732992597 563.9454216182824L1563.091621584253 417.51892842440986L1588.39667626121 417.51892842440986L1652.4001612822617 563.9454216182824L1626.0492030824912 563.9454216182824L1575.0033005940722 442.41724284249494L1524.1898211107223 563.9454216182824L1498.4489732992597 563.9454216182824ZM1530.6686123770382 530.0697686293825L1530.6686123770382 509.15169817311494L1618.3211381639262 509.15169817311494L1618.3211381639262 530.0697686293825L1530.6686123770382 530.0697686293825ZM1771.2264226241145 430.70893396211187L1760.970757525417 451.3945814133097Q1753.0393224774152 446.3974868043125 1745.2822046832162 443.4631463653083Q1737.5541397646507 440.52880592630413 1730.639555363829 439.2795322740548Q1723.754023838641 438.0302586218055 1718.0887130900683 438.0302586218055L1718.0887130900683 438.0302586218055Q1707.2229376030627 438.0302586218055 1700.7441463367468 442.213872713059Q1694.2363021947967 446.3974868043125 1694.2363021947967 454.32892185231395L1694.2363021947967 454.32892185231395Q1694.2363021947967 461.4468763825716 1698.536127788585 465.95007210579587Q1702.8359533823732 470.4532678290201 1709.8376964100962 473.2713967654895Q1716.8394394378188 476.08952570195885 1725.3228791228607 478.5880730064575Q1733.777265932269 481.1156731865898 1742.144494114776 484.1371722524951Q1750.511722297283 487.1877241940341 1757.6296768275406 491.9814486735954Q1764.7476313577981 496.80422602879037 1768.9312454490519 504.21270931538515Q1773.1148595403051 511.65024547761357 1773.1148595403051 522.9518140991247L1773.1148595403051 522.9518140991247Q1773.1148595403051 535.9093966317571 1765.9969050100476 545.4387398396123Q1758.87895047979 554.9390301718338 1746.4443197085643 560.1685477859007Q1733.980636061705 565.3980653999675 1717.8853429606324 565.3980653999675L1717.8853429606324 565.3980653999675Q1706.3804042096854 565.3980653999675 1695.5146287226798 562.3765663340622Q1684.6198003600402 559.355067268157 1675.1195100278192 554.12554965409Q1665.5901668199635 548.8960320400232 1658.0654720308344 541.9814476392014L1658.0654720308344 541.9814476392014L1668.727877388404 521.7025404468754Q1676.2525721775332 528.5880719720635 1684.7360118625752 533.4108493272586Q1693.190398671983 538.2045738068198 1701.8772084864613 540.7321739869521Q1710.5640183009386 543.2307212914507 1718.292083219504 543.2307212914507L1718.292083219504 543.2307212914507Q1731.2787186277706 543.2307212914507 1738.483831784929 538.2045738068198Q1745.7179978177219 533.2074791978225 1745.7179978177219 524.2010877513741L1745.7179978177219 524.2010877513741Q1745.7179978177219 516.8797630916804 1741.4181722239332 512.3765673684562Q1737.118346630145 507.87337164523194 1730.1166036024224 504.96808408186143Q1723.1148605746994 502.0337436428573 1714.6314208896574 499.7385664677946Q1706.1770340802495 497.4143364170982 1697.6935943952076 494.3928373511929Q1689.2392075857992 491.3713382852876 1682.208411682443 486.75193105952854Q1675.20666865472 482.16157670940316 1670.9358959365654 474.84025204970953Q1666.6360703427772 467.51892739001596 1666.6360703427772 456.21735876850477L1666.6360703427772 456.21735876850477Q1666.6360703427772 443.8698866241802 1673.3182317385294 434.7763365508306Q1680.0294460099149 425.68278647748093 1692.057336522269 420.65663899285005Q1704.0852270346227 415.63049150821905 1719.9771500062593 415.63049150821905L1719.9771500062593 415.63049150821905Q1734.2130590667743 415.63049150821905 1747.5773818582788 419.81410559947255Q1760.970757525417 423.99771969072606 1771.2264226241145 430.70893396211187L1771.2264226241145 430.70893396211187ZM1801.9643650445742 563.9454216182824L1801.9643650445742 417.51892842440986L1826.6593093332235 417.51892842440986L1826.6593093332235 563.9454216182824L1801.9643650445742 563.9454216182824ZM1985.6366448008562 438.6403690101133L1971.1973656109049 455.57819550456327Q1963.2659305629036 446.8042270631844 1952.371102200264 441.77807957855345Q1941.5053267132585 436.7519320939225 1930.4071282211835 436.7519320939225L1930.4071282211835 436.7519320939225Q1919.5413527341775 436.7519320939225 1910.0120095263223 440.8483875582749Q1900.5117191941008 444.9157901469936 1893.2775531613083 452.23711480668715Q1886.07244000415 459.5584394663808 1882.0921960423325 469.29115280367193Q1878.1119520805146 479.02386614096304 1878.1119520805146 490.32543476247423L1878.1119520805146 490.32543476247423Q1878.1119520805146 501.39458037891575 1882.0921960423325 511.1272937162069Q1886.07244000415 520.8600070534981 1893.2775531613083 528.1813317131916Q1900.5117191941008 535.5026563728852 1910.0120095263223 539.6862704641387Q1919.5413527341775 543.8698845553922 1930.4071282211835 543.8698845553922L1930.4071282211835 543.8698845553922Q1941.5053267132585 543.8698845553922 1952.1677320708282 539.1633187027321Q1962.8301374283978 534.4567528500719 1971.1973656109049 526.2928947970008L1971.1973656109049 526.2928947970008L1985.840014930292 541.5747073803295Q1978.5186902705987 548.8960320400232 1969.221770067813 554.328919783526Q1959.8957969893936 559.7618075270289 1949.756343393231 562.696147966033Q1939.6168897970674 565.6304884050371 1929.157854568934 565.6304884050371L1929.157854568934 565.6304884050371Q1913.0625614678615 565.6304884050371 1899.2333926662182 559.8780190295636Q1885.4332767402084 554.12554965409 1875.0904530146095 543.8698845553922Q1864.7185764133765 533.6142194566944 1858.878948411002 519.9012621575857Q1853.0102675329936 506.21735773411075 1853.0102675329936 490.52880489191017L1853.0102675329936 490.52880489191017Q1853.0102675329936 474.84025204970953 1858.878948411002 461.3306648800368Q1864.7185764133765 447.85013058599776 1875.2938231440453 437.59446548729994Q1885.8690698747137 427.3388003886021 1899.7563444276248 421.70254251566337Q1913.6726718561695 416.06628464272467 1930.0003879623114 416.06628464272467L1930.0003879623114 416.06628464272467Q1940.4594231904452 416.06628464272467 1950.4826652840734 418.76820207665924Q1960.5349602533352 421.49917238622743 1969.5413516997837 426.5253198708584Q1978.5186902705987 431.5224144798556 1985.6366448008562 438.6403690101133L1985.6366448008562 438.6403690101133ZM2110.302534145084 430.70893396211187L2100.046869046386 451.3945814133097Q2092.1154339983846 446.3974868043125 2084.358316204185 443.4631463653083Q2076.6302512856196 440.52880592630413 2069.7156668847983 439.2795322740548Q2062.83013535961 438.0302586218055 2057.1648246110376 438.0302586218055L2057.1648246110376 438.0302586218055Q2046.299049124032 438.0302586218055 2039.8202578577157 442.213872713059Q2033.3414665913997 446.3974868043125 2033.3414665913997 454.32892185231395L2033.3414665913997 454.32892185231395Q2033.3414665913997 461.4468763825716 2037.6122393095543 465.95007210579587Q2041.9120649033425 470.4532678290201 2048.9138079310655 473.2713967654895Q2055.915550958788 476.08952570195885 2064.39899064383 478.5880730064575Q2072.853377453238 481.1156731865898 2081.2206056357454 484.1371722524951Q2089.587833818252 487.1877241940341 2096.70578834851 491.9814486735954Q2103.8237428787675 496.80422602879037 2108.007356970021 504.21270931538515Q2112.1909710612745 511.65024547761357 2112.1909710612745 522.9518140991247L2112.1909710612745 522.9518140991247Q2112.1909710612745 535.9093966317571 2105.073016531017 545.4387398396123Q2097.9550620007594 554.9390301718338 2085.5204312295336 560.1685477859007Q2073.085800458308 565.3980653999675 2056.961454481602 565.3980653999675L2056.961454481602 565.3980653999675Q2045.4565157306547 565.3980653999675 2034.5907402436487 562.3765663340622Q2023.6959118810096 559.355067268157 2014.195621548788 554.12554965409Q2004.6662783409329 548.8960320400232 1997.1415835518033 541.9814476392014L1997.1415835518033 541.9814476392014L2007.803988909373 521.7025404468754Q2015.3286836985026 528.5880719720635 2023.8121233835445 533.4108493272586Q2032.2955630685865 538.2045738068198 2040.9533200074302 540.7321739869521Q2049.640129821908 543.2307212914507 2057.397247616107 543.2307212914507L2057.397247616107 543.2307212914507Q2070.3548301487394 543.2307212914507 2077.5599433058983 538.2045738068198Q2084.7941093386908 533.2074791978225 2084.7941093386908 524.2010877513741L2084.7941093386908 524.2010877513741Q2084.7941093386908 516.8797630916804 2080.4942837449025 512.3765673684562Q2076.223511026748 507.87337164523194 2069.1927151233913 504.96808408186143Q2062.1909720956687 502.0337436428573 2053.7365852862604 499.7385664677946Q2045.2531456012184 497.4143364170982 2036.7697059161765 494.3928373511929Q2028.3153191067686 491.3713382852876 2021.313576079046 486.75193105952854Q2014.2827801756894 482.16157670940316 2010.0120074575348 474.84025204970953Q2005.712181863746 467.51892739001596 2005.712181863746 456.21735876850477L2005.712181863746 456.21735876850477Q2005.712181863746 443.8698866241802 2012.423396135132 434.7763365508306Q2019.1055575308842 425.68278647748093 2031.1334480432379 420.65663899285005Q2043.161338555592 415.63049150821905 2059.053261527228 415.63049150821905L2059.053261527228 415.63049150821905Q2073.2891705877437 415.63049150821905 2086.682546254882 419.81410559947255Q2100.046869046386 423.99771969072606 2110.302534145084 430.70893396211187L2110.302534145084 430.70893396211187Z " fill="#000000" transform="matrix(0.41426177320366864,0,0,0.41426177320366864,0,96.75054935845822)"/></g></svg>